Coordinates
version=1
nRows=25
nColumns=38
inDegrees=no

Units are S.I. units (second, meters, Newtons, ...)
If the header above contains a line with 'inDegrees', this indicates whether rotational values are in degrees (yes) or radians (no).

endheader
time	pelvis_tilt	pelvis_list	pelvis_rotation	pelvis_tx	pelvis_ty	pelvis_tz	hip_flexion_r	hip_adduction_r	hip_rotation_r	knee_angle_r	ankle_angle_r	subtalar_angle_r	mtp_angle_r	hip_flexion_l	hip_adduction_l	hip_rotation_l	knee_angle_l	ankle_angle_l	subtalar_angle_l	mtp_angle_l	lumbar_extension	lumbar_bending	lumbar_rotation	arm_flex_r	arm_add_r	arm_rot_r	elbow_flex_r	pro_sup_r	wrist_flex_r	wrist_dev_r	arm_flex_l	arm_add_l	arm_rot_l	elbow_flex_l	pro_sup_l	wrist_flex_l	wrist_dev_l
4.59	2.28784	1.42559	-0.730771	0.809098	1.17492	0.986294	-0.0374846	0.133181	-0.192353	0.272707	0.130673	0	0	0.207996	-0.15525	-0.114258	0.623655	0.142174	0	0	-0.286629	0.12048	0.167485	0.463304	-0.173828	0.286063	1.51682	1.5708	0	0	0.741182	-0.371087	0.532822	1.14571	1.5708	0	0
4.6	2.30223	1.42704	-0.743376	0.808856	1.18031	0.986223	-0.0428204	0.13003	-0.193059	0.275643	0.135128	0	0	0.209504	-0.150842	-0.11704	0.582814	0.134148	0	0	-0.28854	0.118041	0.166432	0.464476	-0.17198	0.286876	1.51598	1.5708	0	0	0.743809	-0.371293	0.533263	1.14235	1.5708	0	0
4.61	2.30971	1.42835	-0.748833	0.808518	1.18575	0.985988	-0.047463	0.127559	-0.194343	0.27876	0.140244	0	0	0.211796	-0.147181	-0.119419	0.542547	0.126866	0	0	-0.289408	0.116681	0.165339	0.465555	-0.17054	0.288013	1.51523	1.5708	0	0	0.746556	-0.371316	0.533932	1.13897	1.5708	0	0
4.62	2.31565	1.42952	-0.752643	0.808062	1.19121	0.985687	-0.0516728	0.125013	-0.196399	0.282662	0.146173	0	0	0.21352	-0.14341	-0.120986	0.501269	0.118867	0	0	-0.290073	0.115868	0.164182	0.466878	-0.169437	0.289537	1.51442	1.5708	0	0	0.749522	-0.371175	0.53477	1.13557	1.5708	0	0
4.63	2.31299	1.43067	-0.747422	0.807505	1.19672	0.985224	-0.0551085	0.123404	-0.198282	0.286125	0.151712	0	0	0.216283	-0.140425	-0.121243	0.461283	0.111984	0	0	-0.289486	0.116211	0.162752	0.467973	-0.168665	0.29098	1.514	1.5708	0	0	0.752382	-0.370949	0.535774	1.13237	1.5708	0	0
4.64	2.30335	1.43175	-0.734944	0.806843	1.20228	0.984641	-0.0579281	0.12257	-0.199771	0.289438	0.156626	0	0	0.219344	-0.137883	-0.11981	0.421306	0.104715	0	0	-0.287966	0.11755	0.161229	0.468891	-0.168308	0.291969	1.51403	1.5708	0	0	0.755223	-0.370456	0.536874	1.12917	1.5708	0	0
4.65	2.28794	1.43252	-0.716568	0.80609	1.20786	0.983962	-0.0602502	0.122374	-0.201509	0.293018	0.161799	0	0	0.222268	-0.135888	-0.116732	0.381143	0.0965485	0	0	-0.285855	0.119826	0.159777	0.469716	-0.168311	0.292273	1.51466	1.5708	0	0	0.758075	-0.369729	0.53831	1.12617	1.5708	0	0
4.66	2.2672	1.43284	-0.692942	0.80528	1.21349	0.983199	-0.0623081	0.122876	-0.203172	0.296701	0.167074	0	0	0.225008	-0.134662	-0.112502	0.341223	0.088095	0	0	-0.28331	0.123006	0.158434	0.470509	-0.168845	0.292527	1.51592	1.5708	0	0	0.76076	-0.369031	0.540187	1.12355	1.5708	0	0
4.67	2.24414	1.43276	-0.666966	0.804418	1.21916	0.982383	-0.0647249	0.123969	-0.204399	0.299706	0.172081	0	0	0.226999	-0.133809	-0.106626	0.300948	0.0799698	0	0	-0.280578	0.126704	0.157054	0.471199	-0.169891	0.292945	1.51755	1.5708	0	0	0.763217	-0.368462	0.542596	1.12144	1.5708	0	0
4.68	2.21652	1.43256	-0.636631	0.803556	1.22484	0.981483	-0.0668235	0.125593	-0.205021	0.302305	0.176996	0	0	0.228678	-0.133428	-0.0992499	0.26037	0.0725847	0	0	-0.27717	0.130672	0.155827	0.471442	-0.170924	0.292538	1.51917	1.5708	0	0	0.765506	-0.367969	0.545434	1.1198	1.5708	0	0
4.69	2.18436	1.4324	-0.602136	0.802688	1.23054	0.980489	-0.0681688	0.127402	-0.205501	0.305204	0.182177	0	0	0.230254	-0.133522	-0.0907011	0.219888	0.0663721	0	0	-0.272954	0.134681	0.154635	0.471342	-0.171918	0.291386	1.5206	1.5708	0	0	0.767606	-0.367605	0.548496	1.11876	1.5708	0	0
4.7	2.14796	1.43206	-0.563843	0.801803	1.23625	0.979399	-0.0689101	0.1295	-0.205834	0.308322	0.187547	0	0	0.231851	-0.13434	-0.081552	0.18004	0.0611657	0	0	-0.268103	0.138902	0.153535	0.47113	-0.173513	0.290424	1.52238	1.5708	0	0	0.769316	-0.367313	0.551624	1.11852	1.5708	0	0
4.71	2.10729	1.43146	-0.521658	0.800893	1.24199	0.978217	-0.0688616	0.131812	-0.206665	0.312023	0.19304	0	0	0.233733	-0.135818	-0.0720206	0.141266	0.0565767	0	0	-0.262643	0.143494	0.152409	0.470736	-0.175374	0.289338	1.5245	1.5708	0	0	0.770322	-0.367209	0.554467	1.11928	1.5708	0	0
4.72	2.06537	1.43064	-0.478533	0.799946	1.24773	0.976983	-0.0685349	0.134141	-0.207544	0.315849	0.198144	0	0	0.235905	-0.137779	-0.0625053	0.104388	0.0523555	0	0	-0.256969	0.148165	0.151065	0.47047	-0.177027	0.288217	1.52653	1.5708	0	0	0.770583	-0.367338	0.556279	1.12123	1.5708	0	0
4.73	2.02416	1.42956	-0.436836	0.799034	1.2535	0.975757	-0.0684543	0.136568	-0.207647	0.319357	0.203083	0	0	0.237839	-0.140264	-0.0538579	0.0691615	0.0478511	0	0	-0.251415	0.152684	0.149996	0.470391	-0.178579	0.287409	1.52843	1.5708	0	0	0.770067	-0.367687	0.557042	1.1237	1.5708	0	0
4.74	1.98602	1.42805	-0.398873	0.798149	1.25933	0.974559	-0.0689672	0.139012	-0.207284	0.32266	0.207761	0	0	0.239296	-0.143277	-0.0468912	0.0360866	0.0434164	0	0	-0.246363	0.157039	0.149315	0.470461	-0.180386	0.287261	1.53035	1.5708	0	0	0.769026	-0.368294	0.557599	1.12644	1.5708	0	0
4.75	1.95188	1.42626	-0.365488	0.797257	1.26518	0.973397	-0.0700477	0.141214	-0.206486	0.325963	0.212305	0	0	0.240613	-0.146595	-0.0421267	0.00613438	0.0404182	0	0	-0.241962	0.161085	0.148977	0.470569	-0.18221	0.287409	1.53232	1.5708	0	0	0.767593	-0.368959	0.557708	1.12969	1.5708	0	0
4.76	1.9378	1.42509	-0.352375	0.796607	1.27038	0.972169	-0.0713553	0.148218	-0.19469	0.331189	0.210003	0	0	0.249138	-0.145236	-0.0344497	0	0.0373191	0	0	-0.240769	0.162904	0.14911	0.471271	-0.182169	0.288541	1.53461	1.5708	0	0	0.766858	-0.368498	0.558422	1.1332	1.5708	0	0
4.77	1.92487	1.42304	-0.33945	0.795728	1.27592	0.971284	-0.0755929	0.149634	-0.192863	0.333693	0.214367	0	0	0.258852	-0.148549	-0.0401958	0	0.0413084	0	0	-0.240055	0.165546	0.148245	0.471704	-0.183114	0.287686	1.53634	1.5708	0	0	0.765857	-0.368801	0.556989	1.13675	1.5708	0	0
4.78	1.91732	1.42143	-0.332407	0.794738	1.28172	0.970457	-0.0803342	0.150153	-0.191112	0.336568	0.218615	0	0	0.266777	-0.151111	-0.0476049	0	0.0460712	0	0	-0.239869	0.167397	0.147651	0.472619	-0.184495	0.287722	1.53812	1.5708	0	0	0.764815	-0.368804	0.554861	1.14015	1.5708	0	0
4.79	1.91495	1.42034	-0.330957	0.793721	1.28746	0.96968	-0.0853944	0.149613	-0.189844	0.340307	0.222643	0	0	0.272765	-0.152866	-0.0562171	0	0.0508782	0	0	-0.240347	0.168315	0.14724	0.474059	-0.1857	0.288019	1.53962	1.5708	0	0	0.763944	-0.368567	0.552356	1.14339	1.5708	0	0
4.8	1.91649	1.41958	-0.334045	0.792645	1.29328	0.968959	-0.0908648	0.148265	-0.188138	0.34441	0.226788	0	0	0.27687	-0.154184	-0.066241	0	0.055722	0	0	-0.241286	0.168608	0.14727	0.475812	-0.186271	0.287769	1.54058	1.5708	0	0	0.763157	-0.368026	0.549523	1.14611	1.5708	0	0
4.81	1.92285	1.41926	-0.342475	0.791562	1.2992	0.968315	-0.0968387	0.146008	-0.18583	0.348859	0.23098	0	0	0.278938	-0.154873	-0.0776303	0	0.0597054	0	0	-0.242715	0.168063	0.147945	0.477232	-0.186659	0.286741	1.54172	1.5708	0	0	0.762782	-0.367105	0.546973	1.14787	1.5708	0	0
4.82	1.93411	1.41953	-0.355949	0.790386	1.30522	0.967737	-0.103359	0.142791	-0.183156	0.353402	0.234995	0	0	0.279172	-0.154625	-0.0898981	0	0.0621182	0	0	-0.244505	0.166631	0.148954	0.477776	-0.187378	0.285462	1.54372	1.5708	0	0	0.762625	-0.366048	0.545347	1.14939	1.5708	0	0
4.83	1.94808	1.4204	-0.372181	0.789139	1.31137	0.967186	-0.10964	0.138593	-0.180851	0.358951	0.238967	0	0	0.278118	-0.153445	-0.102	0	0.0626626	0	0	-0.246156	0.164468	0.150066	0.4775	-0.188517	0.284552	1.54617	1.5708	0	0	0.762386	-0.364998	0.544615	1.15086	1.5708	0	0
